<svg width="32" height="32" viewBox="0 0 32 32" fill="none" xmlns="http://www.w3.org/2000/svg">
<path fill-rule="evenodd" clip-rule="evenodd" d="M16 32C24.8365 32 32 24.8365 32 16C32 7.16345 24.8365 0 16 0C7.16345 0 0 7.16345 0 16C0 24.8365 7.16345 32 16 32ZM18.6904 10.5704H23.2498L23.2677 11.8261H18.6904V10.5704ZM21.1185 19.5381C21.5332 19.5507 21.9417 19.4355 22.2876 19.2086C22.543 19.0492 22.7386 18.8116 22.8451 18.5318H24.8325C24.6055 19.3774 24.0869 20.1177 23.3667 20.6246C22.6536 21.0571 21.8284 21.2737 20.9926 21.2479C20.397 21.258 19.8048 21.1552 19.248 20.9451C18.7488 20.7491 18.3002 20.4448 17.9351 20.0546C17.5823 19.6572 17.3132 19.194 17.1438 18.6921C16.9442 18.1379 16.8467 17.5527 16.856 16.9645C16.8505 16.3844 16.951 15.8082 17.1527 15.2635C17.3407 14.7591 17.6315 14.2983 18.0071 13.91C18.3837 13.5292 18.833 13.2264 19.329 13.0194C19.8706 12.7977 20.4515 12.6857 21.0376 12.6899C21.6606 12.6804 22.2772 12.8177 22.8361 13.0906C23.3385 13.3497 23.775 13.7181 24.113 14.1682C24.4489 14.6322 24.693 15.1549 24.8325 15.7088C24.9767 16.291 25.0283 16.8919 24.9854 17.4899H19.0322C19.0059 18.0641 19.2058 18.6261 19.5897 19.0573C19.7975 19.2372 20.0404 19.3729 20.3035 19.4556C20.5665 19.5384 20.844 19.5665 21.1185 19.5381ZM19.5441 14.9377C19.3893 15.1125 19.2731 15.3176 19.2031 15.5396H19.1581C19.1069 15.7139 19.0737 15.8929 19.0592 16.0739H22.7911C22.7262 15.6 22.5302 15.1531 22.2246 14.7827C22.0646 14.6269 21.8724 14.5073 21.6614 14.4319C21.4502 14.3566 21.2252 14.3274 21.0016 14.3463C20.6921 14.3376 20.3846 14.3986 20.1023 14.5244C19.8892 14.6221 19.699 14.7628 19.5441 14.9377ZM15.597 14.2216C15.3014 14.6157 14.9037 14.9234 14.4459 15.1122H14.401C15.0381 15.2643 15.5975 15.6411 15.9747 16.1719C16.3254 16.6997 16.5043 17.3214 16.4873 17.9529C16.5027 18.4626 16.3883 18.968 16.1545 19.4224C15.9434 19.8286 15.6345 20.1772 15.2552 20.4376C14.8638 20.7029 14.4286 20.8987 13.9694 21.0164C13.4847 21.1409 12.9862 21.2038 12.4856 21.2034H7V10.0005H12.3687C12.864 9.99451 13.3585 10.0423 13.8434 10.143C14.2532 10.2148 14.6426 10.3727 14.9855 10.6061C15.309 10.8305 15.564 11.1385 15.7229 11.4966C15.912 11.9099 16.0013 12.3611 15.9836 12.8146C16.0038 13.3118 15.8688 13.8031 15.597 14.2216ZM11.8201 11.9152H9.49097V14.5333H12.0089C12.399 14.5501 12.7842 14.4407 13.1061 14.2216C13.2535 14.0964 13.3689 13.9382 13.4424 13.7601C13.5159 13.5821 13.5454 13.3892 13.5287 13.1975C13.5386 12.975 13.489 12.7538 13.3848 12.5563C13.3007 12.3917 13.1693 12.2554 13.0071 12.1645C12.8392 12.0637 12.6527 11.9971 12.4585 11.9686C12.2477 11.9327 12.0341 11.9149 11.8201 11.9152ZM13.4387 18.986C13.6113 18.8759 13.7511 18.7222 13.8434 18.5407C13.9327 18.3112 13.9667 18.0641 13.9424 17.8194C13.9652 17.5898 13.9332 17.3581 13.8488 17.1431C13.7644 16.928 13.6301 16.7357 13.4568 16.5815C13.073 16.3243 12.6157 16.1964 12.1528 16.2164H9.45496V19.2888H12.1528C12.3887 19.2925 12.624 19.2686 12.8542 19.2175C13.0613 19.175 13.2592 19.0966 13.4387 18.986Z" fill="black"/>
</svg>
